<svg width="40" height="41" viewBox="0 0 40 41" fill="none" xmlns="http://www.w3.org/2000/svg">
<rect y="4" width="37" height="37" rx="6" fill="#239DAD"/>
<path d="M19.8879 29.1481C19.8879 30.2805 20.0503 31.0404 20.3753 31.4278C20.7003 31.8152 21.2911 32.0089 22.1479 32.0089C23.0341 32.0089 24.1715 31.5619 25.56 30.6679L26.4463 32.143C23.8466 34.3184 21.7047 35.4061 20.0208 35.4061C18.3369 35.4061 17.0075 35.0038 16.0326 34.1992C15.0577 33.3648 14.5702 31.9046 14.5702 29.8186V18.1073H12.3545L12 16.4534L14.5702 15.6488V13.4585L19.8879 11V15.917L25.1169 15.5147L24.6294 18.4202L19.8879 18.2414V29.1481Z" fill="white"/>
<circle cx="30.5" cy="9.5" r="9.5" fill="#FF0000"/>
<path d="M29.04 14.84C29.04 14.4 29.1933 14.0467 29.5 13.78C29.8067 13.5 30.2067 13.36 30.7 13.36C31.2067 13.36 31.6133 13.5 31.92 13.78C32.2267 14.0467 32.38 14.4 32.38 14.84C32.38 15.28 32.2267 15.64 31.92 15.92C31.6133 16.1867 31.2067 16.32 30.7 16.32C30.2067 16.32 29.8067 16.1867 29.5 15.92C29.1933 15.64 29.04 15.28 29.04 14.84ZM29.3 2.8L29.56 2.48C29.7467 2.48 30.0267 2.5 30.4 2.54C30.7733 2.58 31.1333 2.62667 31.48 2.68C31.8267 2.73333 32.06 2.78667 32.18 2.84C32.18 2.84 32.1667 3 32.14 3.32C32.1133 3.62667 32.0733 4.04 32.02 4.56C31.98 5.08 31.9333 5.65333 31.88 6.28C31.8267 6.89333 31.7733 7.51333 31.72 8.14C31.6667 8.75333 31.6133 9.31333 31.56 9.82L31.36 11.88L30.28 12.14L29.94 11.9L29.8 8.84C29.7867 8.48 29.76 8.04667 29.72 7.54C29.68 7.03333 29.6333 6.50667 29.58 5.96C29.54 5.4 29.4933 4.88667 29.44 4.42C29.4 3.94 29.3667 3.55333 29.34 3.26C29.3133 2.95333 29.3 2.8 29.3 2.8Z" fill="white"/>
</svg>
