<svg width="43" height="43" viewBox="0 0 43 43" fill="none" xmlns="http://www.w3.org/2000/svg">
<rect x="3" y="3" width="37" height="37" rx="6" fill="#239DAD"/>
<path d="M22.8879 28.1481C22.8879 29.2805 23.0503 30.0404 23.3753 30.4278C23.7003 30.8152 24.2911 31.0089 25.1479 31.0089C26.0341 31.0089 27.1715 30.5619 28.56 29.6679L29.4463 31.143C26.8466 33.3184 24.7047 34.4061 23.0208 34.4061C21.3369 34.4061 20.0075 34.0038 19.0326 33.1992C18.0577 32.3648 17.5702 30.9046 17.5702 28.8186V17.1073H15.3545L15 15.4534L17.5702 14.6488V12.4585L22.8879 10V14.917L28.1169 14.5147L27.6294 17.4202L22.8879 17.2414V28.1481Z" fill="white"/>
<circle cx="33.5" cy="9.5" r="9.5" fill="#FF0000"/>
<path d="M32.04 14.84C32.04 14.4 32.1933 14.0467 32.5 13.78C32.8067 13.5 33.2067 13.36 33.7 13.36C34.2067 13.36 34.6133 13.5 34.92 13.78C35.2267 14.0467 35.38 14.4 35.38 14.84C35.38 15.28 35.2267 15.64 34.92 15.92C34.6133 16.1867 34.2067 16.32 33.7 16.32C33.2067 16.32 32.8067 16.1867 32.5 15.92C32.1933 15.64 32.04 15.28 32.04 14.84ZM32.3 2.8L32.56 2.48C32.7467 2.48 33.0267 2.5 33.4 2.54C33.7733 2.58 34.1333 2.62667 34.48 2.68C34.8267 2.73333 35.06 2.78667 35.18 2.84C35.18 2.84 35.1667 3 35.14 3.32C35.1133 3.62667 35.0733 4.04 35.02 4.56C34.98 5.08 34.9333 5.65333 34.88 6.28C34.8267 6.89333 34.7733 7.51333 34.72 8.14C34.6667 8.75333 34.6133 9.31333 34.56 9.82L34.36 11.88L33.28 12.14L32.94 11.9L32.8 8.84C32.7867 8.48 32.76 8.04667 32.72 7.54C32.68 7.03333 32.6333 6.50667 32.58 5.96C32.54 5.4 32.4933 4.88667 32.44 4.42C32.4 3.94 32.3667 3.55333 32.34 3.26C32.3133 2.95333 32.3 2.8 32.3 2.8Z" fill="white"/>
</svg>
